<mxfile host="app.diagrams.net" modified="2024-05-07T16:19:24.696Z" agent="Mozilla/5.0 (Macintosh; Intel Mac OS X 10.15; rv:124.0) Gecko/20100101 Firefox/124.0" etag="DGgeuNz_WJeSd4CBKG4P" version="24.3.1" type="device">
  <diagram id="C5RBs43oDa-KdzZeNtuy" name="Page-1">
    <mxGraphModel dx="1647" dy="1090" grid="1" gridSize="10" guides="1" tooltips="1" connect="1" arrows="1" fold="1" page="1" pageScale="1" pageWidth="827" pageHeight="1169" math="0" shadow="0">
      <root>
        <mxCell id="WIyWlLk6GJQsqaUBKTNV-0" />
        <mxCell id="WIyWlLk6GJQsqaUBKTNV-1" parent="WIyWlLk6GJQsqaUBKTNV-0" />
        <mxCell id="uMimtZwjXZrKzvqyP-bI-67" value="" style="rounded=0;whiteSpace=wrap;html=1;fillColor=#e1d5e7;strokeColor=#9673a6;" vertex="1" parent="WIyWlLk6GJQsqaUBKTNV-1">
          <mxGeometry x="639.5" y="411" width="161" height="490" as="geometry" />
        </mxCell>
        <mxCell id="uMimtZwjXZrKzvqyP-bI-68" value="&lt;b&gt;Method 4&lt;br&gt;&lt;/b&gt;" style="text;html=1;align=center;verticalAlign=middle;whiteSpace=wrap;rounded=0;" vertex="1" parent="WIyWlLk6GJQsqaUBKTNV-1">
          <mxGeometry x="730.5" y="411" width="70" height="30" as="geometry" />
        </mxCell>
        <mxCell id="uMimtZwjXZrKzvqyP-bI-62" value="" style="rounded=0;whiteSpace=wrap;html=1;fillColor=#ffe6cc;strokeColor=#d79b00;" vertex="1" parent="WIyWlLk6GJQsqaUBKTNV-1">
          <mxGeometry x="442" y="411" width="161" height="490" as="geometry" />
        </mxCell>
        <mxCell id="uMimtZwjXZrKzvqyP-bI-63" value="&lt;b&gt;Method 3&lt;br&gt;&lt;/b&gt;" style="text;html=1;align=center;verticalAlign=middle;whiteSpace=wrap;rounded=0;" vertex="1" parent="WIyWlLk6GJQsqaUBKTNV-1">
          <mxGeometry x="533" y="411" width="70" height="30" as="geometry" />
        </mxCell>
        <mxCell id="uMimtZwjXZrKzvqyP-bI-52" value="" style="rounded=0;whiteSpace=wrap;html=1;fillColor=#dae8fc;strokeColor=#6c8ebf;" vertex="1" parent="WIyWlLk6GJQsqaUBKTNV-1">
          <mxGeometry x="210" y="411" width="174" height="490" as="geometry" />
        </mxCell>
        <mxCell id="uMimtZwjXZrKzvqyP-bI-37" value="" style="rounded=0;whiteSpace=wrap;html=1;fillColor=#f5f5f5;strokeColor=#666666;fontColor=#333333;" vertex="1" parent="WIyWlLk6GJQsqaUBKTNV-1">
          <mxGeometry x="20" y="173" width="780" height="130" as="geometry" />
        </mxCell>
        <mxCell id="uMimtZwjXZrKzvqyP-bI-31" value="" style="rounded=0;whiteSpace=wrap;html=1;fillColor=#fff2cc;strokeColor=#d6b656;" vertex="1" parent="WIyWlLk6GJQsqaUBKTNV-1">
          <mxGeometry x="22.5" y="411" width="161" height="490" as="geometry" />
        </mxCell>
        <mxCell id="uMimtZwjXZrKzvqyP-bI-0" value="" style="rounded=0;html=1;jettySize=auto;orthogonalLoop=1;fontSize=11;endArrow=block;endFill=0;endSize=8;strokeWidth=1;shadow=0;labelBackgroundColor=none;edgeStyle=orthogonalEdgeStyle;entryX=0.5;entryY=0;entryDx=0;entryDy=0;" edge="1" parent="WIyWlLk6GJQsqaUBKTNV-1" source="uMimtZwjXZrKzvqyP-bI-1" target="uMimtZwjXZrKzvqyP-bI-13">
          <mxGeometry relative="1" as="geometry" />
        </mxCell>
        <mxCell id="uMimtZwjXZrKzvqyP-bI-1" value="0.1 Offline Preprocessing" style="rounded=1;whiteSpace=wrap;html=1;fontSize=12;glass=0;strokeWidth=1;shadow=0;" vertex="1" parent="WIyWlLk6GJQsqaUBKTNV-1">
          <mxGeometry x="354" y="20" width="120" height="40" as="geometry" />
        </mxCell>
        <mxCell id="uMimtZwjXZrKzvqyP-bI-2" value="Execution of recommendation methods" style="rhombus;whiteSpace=wrap;html=1;shadow=0;fontFamily=Helvetica;fontSize=12;align=center;strokeWidth=1;spacing=6;spacingTop=-4;" vertex="1" parent="WIyWlLk6GJQsqaUBKTNV-1">
          <mxGeometry x="364" y="320" width="100" height="80" as="geometry" />
        </mxCell>
        <mxCell id="uMimtZwjXZrKzvqyP-bI-3" value="1.1 Load User profiles as vectors on genre data" style="rounded=1;whiteSpace=wrap;html=1;fontSize=12;glass=0;strokeWidth=1;shadow=0;" vertex="1" parent="WIyWlLk6GJQsqaUBKTNV-1">
          <mxGeometry x="36" y="468" width="137" height="60" as="geometry" />
        </mxCell>
        <mxCell id="uMimtZwjXZrKzvqyP-bI-4" value="2.1 Load User Profiles Extended as vectors" style="rounded=1;whiteSpace=wrap;html=1;fontSize=12;glass=0;strokeWidth=1;shadow=0;" vertex="1" parent="WIyWlLk6GJQsqaUBKTNV-1">
          <mxGeometry x="231" y="467" width="133" height="61" as="geometry" />
        </mxCell>
        <mxCell id="uMimtZwjXZrKzvqyP-bI-5" value="3.1 Load Merged Data" style="rounded=1;whiteSpace=wrap;html=1;fontSize=12;glass=0;strokeWidth=1;shadow=0;" vertex="1" parent="WIyWlLk6GJQsqaUBKTNV-1">
          <mxGeometry x="457" y="468" width="131" height="60" as="geometry" />
        </mxCell>
        <mxCell id="uMimtZwjXZrKzvqyP-bI-6" value="4.1 Load Merged Data as Pivot Table" style="rounded=1;whiteSpace=wrap;html=1;fontSize=12;glass=0;strokeWidth=1;shadow=0;" vertex="1" parent="WIyWlLk6GJQsqaUBKTNV-1">
          <mxGeometry x="655" y="468" width="130" height="60" as="geometry" />
        </mxCell>
        <mxCell id="uMimtZwjXZrKzvqyP-bI-7" value="" style="rounded=0;html=1;jettySize=auto;orthogonalLoop=1;fontSize=11;endArrow=block;endFill=0;endSize=8;strokeWidth=1;shadow=0;labelBackgroundColor=none;edgeStyle=orthogonalEdgeStyle;exitX=0.5;exitY=1;exitDx=0;exitDy=0;entryX=0.5;entryY=0;entryDx=0;entryDy=0;" edge="1" parent="WIyWlLk6GJQsqaUBKTNV-1" source="uMimtZwjXZrKzvqyP-bI-2" target="uMimtZwjXZrKzvqyP-bI-3">
          <mxGeometry relative="1" as="geometry">
            <mxPoint x="424" y="306" as="sourcePoint" />
            <mxPoint x="424" y="356" as="targetPoint" />
            <Array as="points">
              <mxPoint x="414" y="440" />
              <mxPoint x="105" y="440" />
            </Array>
          </mxGeometry>
        </mxCell>
        <mxCell id="uMimtZwjXZrKzvqyP-bI-8" value="" style="rounded=0;html=1;jettySize=auto;orthogonalLoop=1;fontSize=11;endArrow=block;endFill=0;endSize=8;strokeWidth=1;shadow=0;labelBackgroundColor=none;edgeStyle=orthogonalEdgeStyle;exitX=0.5;exitY=1;exitDx=0;exitDy=0;entryX=0.5;entryY=0;entryDx=0;entryDy=0;" edge="1" parent="WIyWlLk6GJQsqaUBKTNV-1" source="uMimtZwjXZrKzvqyP-bI-2" target="uMimtZwjXZrKzvqyP-bI-4">
          <mxGeometry relative="1" as="geometry">
            <mxPoint x="424" y="436" as="sourcePoint" />
            <mxPoint x="174" y="476" as="targetPoint" />
            <Array as="points">
              <mxPoint x="414" y="440" />
              <mxPoint x="297" y="440" />
            </Array>
          </mxGeometry>
        </mxCell>
        <mxCell id="uMimtZwjXZrKzvqyP-bI-9" value="" style="rounded=0;html=1;jettySize=auto;orthogonalLoop=1;fontSize=11;endArrow=block;endFill=0;endSize=8;strokeWidth=1;shadow=0;labelBackgroundColor=none;edgeStyle=orthogonalEdgeStyle;exitX=0.5;exitY=1;exitDx=0;exitDy=0;entryX=0.5;entryY=0;entryDx=0;entryDy=0;" edge="1" parent="WIyWlLk6GJQsqaUBKTNV-1" source="uMimtZwjXZrKzvqyP-bI-2" target="uMimtZwjXZrKzvqyP-bI-5">
          <mxGeometry relative="1" as="geometry">
            <mxPoint x="424" y="436" as="sourcePoint" />
            <mxPoint x="338" y="476" as="targetPoint" />
            <Array as="points">
              <mxPoint x="414" y="440" />
              <mxPoint x="523" y="440" />
            </Array>
          </mxGeometry>
        </mxCell>
        <mxCell id="uMimtZwjXZrKzvqyP-bI-10" value="" style="rounded=0;html=1;jettySize=auto;orthogonalLoop=1;fontSize=11;endArrow=block;endFill=0;endSize=8;strokeWidth=1;shadow=0;labelBackgroundColor=none;edgeStyle=orthogonalEdgeStyle;exitX=0.5;exitY=1;exitDx=0;exitDy=0;entryX=0.5;entryY=0;entryDx=0;entryDy=0;" edge="1" parent="WIyWlLk6GJQsqaUBKTNV-1" source="uMimtZwjXZrKzvqyP-bI-2" target="uMimtZwjXZrKzvqyP-bI-6">
          <mxGeometry relative="1" as="geometry">
            <mxPoint x="424" y="436" as="sourcePoint" />
            <mxPoint x="504" y="476" as="targetPoint" />
            <Array as="points">
              <mxPoint x="414" y="440" />
              <mxPoint x="720" y="440" />
            </Array>
          </mxGeometry>
        </mxCell>
        <mxCell id="uMimtZwjXZrKzvqyP-bI-11" value="0.3 Create User Profiles Normal" style="rounded=1;whiteSpace=wrap;html=1;fontSize=12;glass=0;strokeWidth=1;shadow=0;" vertex="1" parent="WIyWlLk6GJQsqaUBKTNV-1">
          <mxGeometry x="283" y="210" width="120" height="60" as="geometry" />
        </mxCell>
        <mxCell id="uMimtZwjXZrKzvqyP-bI-13" value="Preparation of input data" style="rhombus;whiteSpace=wrap;html=1;shadow=0;fontFamily=Helvetica;fontSize=12;align=center;strokeWidth=1;spacing=6;spacingTop=-4;" vertex="1" parent="WIyWlLk6GJQsqaUBKTNV-1">
          <mxGeometry x="364" y="80" width="100" height="80" as="geometry" />
        </mxCell>
        <mxCell id="uMimtZwjXZrKzvqyP-bI-14" value="0.4 Create User Profiles Extended" style="rounded=1;whiteSpace=wrap;html=1;fontSize=12;glass=0;strokeWidth=1;shadow=0;" vertex="1" parent="WIyWlLk6GJQsqaUBKTNV-1">
          <mxGeometry x="429" y="210" width="120" height="60" as="geometry" />
        </mxCell>
        <mxCell id="uMimtZwjXZrKzvqyP-bI-15" value="0.2 Create &quot;To Recommend&quot; Test Set" style="rounded=1;whiteSpace=wrap;html=1;fontSize=12;glass=0;strokeWidth=1;shadow=0;" vertex="1" parent="WIyWlLk6GJQsqaUBKTNV-1">
          <mxGeometry x="140" y="210" width="120" height="60" as="geometry" />
        </mxCell>
        <mxCell id="uMimtZwjXZrKzvqyP-bI-16" value="0.5 Create Item-Item Similarity Matrix" style="rounded=1;whiteSpace=wrap;html=1;fontSize=12;glass=0;strokeWidth=1;shadow=0;" vertex="1" parent="WIyWlLk6GJQsqaUBKTNV-1">
          <mxGeometry x="580" y="210" width="120" height="60" as="geometry" />
        </mxCell>
        <mxCell id="uMimtZwjXZrKzvqyP-bI-17" value="" style="rounded=0;html=1;jettySize=auto;orthogonalLoop=1;fontSize=11;endArrow=block;endFill=0;endSize=8;strokeWidth=1;shadow=0;labelBackgroundColor=none;edgeStyle=orthogonalEdgeStyle;entryX=0.5;entryY=0;entryDx=0;entryDy=0;exitX=0.5;exitY=1;exitDx=0;exitDy=0;" edge="1" parent="WIyWlLk6GJQsqaUBKTNV-1" source="uMimtZwjXZrKzvqyP-bI-13" target="uMimtZwjXZrKzvqyP-bI-16">
          <mxGeometry relative="1" as="geometry">
            <mxPoint x="424" y="20" as="sourcePoint" />
            <mxPoint x="424" y="110" as="targetPoint" />
          </mxGeometry>
        </mxCell>
        <mxCell id="uMimtZwjXZrKzvqyP-bI-18" value="" style="rounded=0;html=1;jettySize=auto;orthogonalLoop=1;fontSize=11;endArrow=block;endFill=0;endSize=8;strokeWidth=1;shadow=0;labelBackgroundColor=none;edgeStyle=orthogonalEdgeStyle;entryX=0.5;entryY=0;entryDx=0;entryDy=0;exitX=0.5;exitY=1;exitDx=0;exitDy=0;" edge="1" parent="WIyWlLk6GJQsqaUBKTNV-1" source="uMimtZwjXZrKzvqyP-bI-13" target="uMimtZwjXZrKzvqyP-bI-14">
          <mxGeometry relative="1" as="geometry">
            <mxPoint x="424" y="190" as="sourcePoint" />
            <mxPoint x="650" y="230" as="targetPoint" />
          </mxGeometry>
        </mxCell>
        <mxCell id="uMimtZwjXZrKzvqyP-bI-19" value="" style="rounded=0;html=1;jettySize=auto;orthogonalLoop=1;fontSize=11;endArrow=block;endFill=0;endSize=8;strokeWidth=1;shadow=0;labelBackgroundColor=none;edgeStyle=orthogonalEdgeStyle;entryX=0.5;entryY=0;entryDx=0;entryDy=0;exitX=0.5;exitY=1;exitDx=0;exitDy=0;" edge="1" parent="WIyWlLk6GJQsqaUBKTNV-1" source="uMimtZwjXZrKzvqyP-bI-13" target="uMimtZwjXZrKzvqyP-bI-11">
          <mxGeometry relative="1" as="geometry">
            <mxPoint x="424" y="190" as="sourcePoint" />
            <mxPoint x="499" y="230" as="targetPoint" />
          </mxGeometry>
        </mxCell>
        <mxCell id="uMimtZwjXZrKzvqyP-bI-20" value="" style="rounded=0;html=1;jettySize=auto;orthogonalLoop=1;fontSize=11;endArrow=block;endFill=0;endSize=8;strokeWidth=1;shadow=0;labelBackgroundColor=none;edgeStyle=orthogonalEdgeStyle;entryX=0.5;entryY=0;entryDx=0;entryDy=0;exitX=0.5;exitY=1;exitDx=0;exitDy=0;" edge="1" parent="WIyWlLk6GJQsqaUBKTNV-1" source="uMimtZwjXZrKzvqyP-bI-13" target="uMimtZwjXZrKzvqyP-bI-15">
          <mxGeometry relative="1" as="geometry">
            <mxPoint x="424" y="190" as="sourcePoint" />
            <mxPoint x="353" y="230" as="targetPoint" />
          </mxGeometry>
        </mxCell>
        <mxCell id="uMimtZwjXZrKzvqyP-bI-21" value="" style="rounded=0;html=1;jettySize=auto;orthogonalLoop=1;fontSize=11;endArrow=block;endFill=0;endSize=8;strokeWidth=1;shadow=0;labelBackgroundColor=none;edgeStyle=orthogonalEdgeStyle;entryX=0.5;entryY=0;entryDx=0;entryDy=0;exitX=0.5;exitY=1;exitDx=0;exitDy=0;" edge="1" parent="WIyWlLk6GJQsqaUBKTNV-1" source="uMimtZwjXZrKzvqyP-bI-15" target="uMimtZwjXZrKzvqyP-bI-2">
          <mxGeometry relative="1" as="geometry">
            <mxPoint x="424" y="220" as="sourcePoint" />
            <mxPoint x="210" y="260" as="targetPoint" />
          </mxGeometry>
        </mxCell>
        <mxCell id="uMimtZwjXZrKzvqyP-bI-22" value="" style="rounded=0;html=1;jettySize=auto;orthogonalLoop=1;fontSize=11;endArrow=block;endFill=0;endSize=8;strokeWidth=1;shadow=0;labelBackgroundColor=none;edgeStyle=orthogonalEdgeStyle;entryX=0.5;entryY=0;entryDx=0;entryDy=0;exitX=0.5;exitY=1;exitDx=0;exitDy=0;" edge="1" parent="WIyWlLk6GJQsqaUBKTNV-1" source="uMimtZwjXZrKzvqyP-bI-11" target="uMimtZwjXZrKzvqyP-bI-2">
          <mxGeometry relative="1" as="geometry">
            <mxPoint x="210" y="300" as="sourcePoint" />
            <mxPoint x="424" y="365" as="targetPoint" />
          </mxGeometry>
        </mxCell>
        <mxCell id="uMimtZwjXZrKzvqyP-bI-23" value="" style="rounded=0;html=1;jettySize=auto;orthogonalLoop=1;fontSize=11;endArrow=block;endFill=0;endSize=8;strokeWidth=1;shadow=0;labelBackgroundColor=none;edgeStyle=orthogonalEdgeStyle;entryX=0.5;entryY=0;entryDx=0;entryDy=0;exitX=0.5;exitY=1;exitDx=0;exitDy=0;" edge="1" parent="WIyWlLk6GJQsqaUBKTNV-1" source="uMimtZwjXZrKzvqyP-bI-14" target="uMimtZwjXZrKzvqyP-bI-2">
          <mxGeometry relative="1" as="geometry">
            <mxPoint x="353" y="300" as="sourcePoint" />
            <mxPoint x="424" y="365" as="targetPoint" />
          </mxGeometry>
        </mxCell>
        <mxCell id="uMimtZwjXZrKzvqyP-bI-24" value="" style="rounded=0;html=1;jettySize=auto;orthogonalLoop=1;fontSize=11;endArrow=block;endFill=0;endSize=8;strokeWidth=1;shadow=0;labelBackgroundColor=none;edgeStyle=orthogonalEdgeStyle;entryX=0.5;entryY=0;entryDx=0;entryDy=0;exitX=0.5;exitY=1;exitDx=0;exitDy=0;" edge="1" parent="WIyWlLk6GJQsqaUBKTNV-1" source="uMimtZwjXZrKzvqyP-bI-16" target="uMimtZwjXZrKzvqyP-bI-2">
          <mxGeometry relative="1" as="geometry">
            <mxPoint x="499" y="300" as="sourcePoint" />
            <mxPoint x="424" y="365" as="targetPoint" />
          </mxGeometry>
        </mxCell>
        <mxCell id="uMimtZwjXZrKzvqyP-bI-25" value="1.1 Calculate Cosine Similarity between vectorized User Profiles and genre data on items in &quot;to recommend&quot; DF " style="rounded=1;whiteSpace=wrap;html=1;fontSize=12;glass=0;strokeWidth=1;shadow=0;" vertex="1" parent="WIyWlLk6GJQsqaUBKTNV-1">
          <mxGeometry x="36" y="555" width="137" height="90" as="geometry" />
        </mxCell>
        <mxCell id="uMimtZwjXZrKzvqyP-bI-26" value="" style="rounded=0;html=1;jettySize=auto;orthogonalLoop=1;fontSize=11;endArrow=block;endFill=0;endSize=8;strokeWidth=1;shadow=0;labelBackgroundColor=none;edgeStyle=orthogonalEdgeStyle;entryX=0.5;entryY=0;entryDx=0;entryDy=0;exitX=0.5;exitY=1;exitDx=0;exitDy=0;" edge="1" parent="WIyWlLk6GJQsqaUBKTNV-1" source="uMimtZwjXZrKzvqyP-bI-3" target="uMimtZwjXZrKzvqyP-bI-25">
          <mxGeometry relative="1" as="geometry">
            <mxPoint x="159" y="291" as="sourcePoint" />
            <mxPoint x="373" y="347" as="targetPoint" />
          </mxGeometry>
        </mxCell>
        <mxCell id="uMimtZwjXZrKzvqyP-bI-27" value="Evaluate Results" style="rounded=1;whiteSpace=wrap;html=1;fontSize=12;glass=0;strokeWidth=1;shadow=0;" vertex="1" parent="WIyWlLk6GJQsqaUBKTNV-1">
          <mxGeometry x="364" y="991" width="120" height="40" as="geometry" />
        </mxCell>
        <mxCell id="uMimtZwjXZrKzvqyP-bI-28" value="Export Recommendations as .csv" style="rounded=1;whiteSpace=wrap;html=1;fontSize=12;glass=0;strokeWidth=1;shadow=0;" vertex="1" parent="WIyWlLk6GJQsqaUBKTNV-1">
          <mxGeometry x="364" y="1051" width="120" height="60" as="geometry" />
        </mxCell>
        <mxCell id="uMimtZwjXZrKzvqyP-bI-29" value="" style="rounded=0;html=1;jettySize=auto;orthogonalLoop=1;fontSize=11;endArrow=block;endFill=0;endSize=8;strokeWidth=1;shadow=0;labelBackgroundColor=none;edgeStyle=orthogonalEdgeStyle;exitX=0.5;exitY=1;exitDx=0;exitDy=0;entryX=0.5;entryY=0;entryDx=0;entryDy=0;" edge="1" parent="WIyWlLk6GJQsqaUBKTNV-1" source="uMimtZwjXZrKzvqyP-bI-25" target="uMimtZwjXZrKzvqyP-bI-47">
          <mxGeometry relative="1" as="geometry">
            <mxPoint x="174" y="516" as="sourcePoint" />
            <mxPoint x="320" y="660" as="targetPoint" />
            <Array as="points">
              <mxPoint x="164" y="920" />
              <mxPoint x="425" y="920" />
            </Array>
          </mxGeometry>
        </mxCell>
        <mxCell id="uMimtZwjXZrKzvqyP-bI-32" value="" style="rounded=0;html=1;jettySize=auto;orthogonalLoop=1;fontSize=11;endArrow=block;endFill=0;endSize=8;strokeWidth=1;shadow=0;labelBackgroundColor=none;edgeStyle=orthogonalEdgeStyle;exitX=0.5;exitY=1;exitDx=0;exitDy=0;entryX=0.5;entryY=0;entryDx=0;entryDy=0;" edge="1" parent="WIyWlLk6GJQsqaUBKTNV-1" source="uMimtZwjXZrKzvqyP-bI-27" target="uMimtZwjXZrKzvqyP-bI-28">
          <mxGeometry relative="1" as="geometry">
            <mxPoint x="184" y="911" as="sourcePoint" />
            <mxPoint x="434" y="981" as="targetPoint" />
          </mxGeometry>
        </mxCell>
        <mxCell id="uMimtZwjXZrKzvqyP-bI-33" value="" style="ellipse;whiteSpace=wrap;html=1;aspect=fixed;" vertex="1" parent="WIyWlLk6GJQsqaUBKTNV-1">
          <mxGeometry x="406" y="1131" width="36" height="36" as="geometry" />
        </mxCell>
        <mxCell id="uMimtZwjXZrKzvqyP-bI-34" value="" style="ellipse;whiteSpace=wrap;html=1;aspect=fixed;fillColor=#000000;" vertex="1" parent="WIyWlLk6GJQsqaUBKTNV-1">
          <mxGeometry x="413" y="1138" width="22" height="22" as="geometry" />
        </mxCell>
        <mxCell id="uMimtZwjXZrKzvqyP-bI-35" value="" style="rounded=0;html=1;jettySize=auto;orthogonalLoop=1;fontSize=11;endArrow=block;endFill=0;endSize=8;strokeWidth=1;shadow=0;labelBackgroundColor=none;edgeStyle=orthogonalEdgeStyle;exitX=0.5;exitY=1;exitDx=0;exitDy=0;entryX=0.5;entryY=0;entryDx=0;entryDy=0;" edge="1" parent="WIyWlLk6GJQsqaUBKTNV-1" source="uMimtZwjXZrKzvqyP-bI-28" target="uMimtZwjXZrKzvqyP-bI-33">
          <mxGeometry relative="1" as="geometry">
            <mxPoint x="434" y="971" as="sourcePoint" />
            <mxPoint x="434" y="1011" as="targetPoint" />
          </mxGeometry>
        </mxCell>
        <mxCell id="uMimtZwjXZrKzvqyP-bI-36" value="End" style="text;html=1;align=center;verticalAlign=middle;whiteSpace=wrap;rounded=0;" vertex="1" parent="WIyWlLk6GJQsqaUBKTNV-1">
          <mxGeometry x="435" y="1134" width="60" height="30" as="geometry" />
        </mxCell>
        <mxCell id="uMimtZwjXZrKzvqyP-bI-40" value="&lt;b&gt;Method 1&lt;/b&gt;" style="text;html=1;align=center;verticalAlign=middle;whiteSpace=wrap;rounded=0;" vertex="1" parent="WIyWlLk6GJQsqaUBKTNV-1">
          <mxGeometry x="22.5" y="411" width="70" height="30" as="geometry" />
        </mxCell>
        <mxCell id="uMimtZwjXZrKzvqyP-bI-41" value="&lt;b&gt;Preparation&lt;/b&gt;" style="text;html=1;align=center;verticalAlign=middle;whiteSpace=wrap;rounded=0;" vertex="1" parent="WIyWlLk6GJQsqaUBKTNV-1">
          <mxGeometry x="20" y="173" width="80" height="30" as="geometry" />
        </mxCell>
        <mxCell id="uMimtZwjXZrKzvqyP-bI-42" value="2.2 Calculate Cosine Similarity between vectorized User Profiles and genre data on items in &quot;to recommend&quot; DF " style="rounded=1;whiteSpace=wrap;html=1;fontSize=12;glass=0;strokeWidth=1;shadow=0;" vertex="1" parent="WIyWlLk6GJQsqaUBKTNV-1">
          <mxGeometry x="231" y="553" width="133" height="90" as="geometry" />
        </mxCell>
        <mxCell id="uMimtZwjXZrKzvqyP-bI-43" value="2.3 Preprocess Item summary, cast &amp;amp; director data" style="rounded=1;whiteSpace=wrap;html=1;fontSize=12;glass=0;strokeWidth=1;shadow=0;" vertex="1" parent="WIyWlLk6GJQsqaUBKTNV-1">
          <mxGeometry x="231" y="668" width="133" height="50" as="geometry" />
        </mxCell>
        <mxCell id="uMimtZwjXZrKzvqyP-bI-45" value="2.4 Calculate cosine similarity between user profiles extended and item summary, cast &amp;amp; director data" style="rounded=1;whiteSpace=wrap;html=1;fontSize=12;glass=0;strokeWidth=1;shadow=0;" vertex="1" parent="WIyWlLk6GJQsqaUBKTNV-1">
          <mxGeometry x="231" y="738" width="133" height="80" as="geometry" />
        </mxCell>
        <mxCell id="uMimtZwjXZrKzvqyP-bI-46" value="2.5 Combine similarity values with equal weighting" style="rounded=1;whiteSpace=wrap;html=1;fontSize=12;glass=0;strokeWidth=1;shadow=0;" vertex="1" parent="WIyWlLk6GJQsqaUBKTNV-1">
          <mxGeometry x="231" y="839" width="133" height="50" as="geometry" />
        </mxCell>
        <mxCell id="uMimtZwjXZrKzvqyP-bI-47" value="" style="rhombus;whiteSpace=wrap;html=1;shadow=0;fontFamily=Helvetica;fontSize=12;align=center;strokeWidth=1;spacing=6;spacingTop=-4;" vertex="1" parent="WIyWlLk6GJQsqaUBKTNV-1">
          <mxGeometry x="409" y="940" width="30" height="30" as="geometry" />
        </mxCell>
        <mxCell id="uMimtZwjXZrKzvqyP-bI-49" value="" style="rounded=0;html=1;jettySize=auto;orthogonalLoop=1;fontSize=11;endArrow=block;endFill=0;endSize=8;strokeWidth=1;shadow=0;labelBackgroundColor=none;edgeStyle=orthogonalEdgeStyle;exitX=0.5;exitY=1;exitDx=0;exitDy=0;entryX=0.5;entryY=0;entryDx=0;entryDy=0;" edge="1" parent="WIyWlLk6GJQsqaUBKTNV-1" source="uMimtZwjXZrKzvqyP-bI-47" target="uMimtZwjXZrKzvqyP-bI-27">
          <mxGeometry relative="1" as="geometry">
            <mxPoint x="424" y="410" as="sourcePoint" />
            <mxPoint x="338" y="518" as="targetPoint" />
          </mxGeometry>
        </mxCell>
        <mxCell id="uMimtZwjXZrKzvqyP-bI-51" value="" style="rounded=0;html=1;jettySize=auto;orthogonalLoop=1;fontSize=11;endArrow=block;endFill=0;endSize=8;strokeWidth=1;shadow=0;labelBackgroundColor=none;edgeStyle=orthogonalEdgeStyle;exitX=0.5;exitY=1;exitDx=0;exitDy=0;entryX=0.5;entryY=0;entryDx=0;entryDy=0;" edge="1" parent="WIyWlLk6GJQsqaUBKTNV-1" source="uMimtZwjXZrKzvqyP-bI-46" target="uMimtZwjXZrKzvqyP-bI-47">
          <mxGeometry relative="1" as="geometry">
            <mxPoint x="424" y="410" as="sourcePoint" />
            <mxPoint x="338" y="518" as="targetPoint" />
            <Array as="points">
              <mxPoint x="305" y="920" />
              <mxPoint x="424" y="920" />
            </Array>
          </mxGeometry>
        </mxCell>
        <mxCell id="uMimtZwjXZrKzvqyP-bI-53" value="&lt;b&gt;Method 2&lt;br&gt;&lt;/b&gt;" style="text;html=1;align=center;verticalAlign=middle;whiteSpace=wrap;rounded=0;" vertex="1" parent="WIyWlLk6GJQsqaUBKTNV-1">
          <mxGeometry x="210" y="411" width="70" height="30" as="geometry" />
        </mxCell>
        <mxCell id="uMimtZwjXZrKzvqyP-bI-54" value="" style="rounded=0;html=1;jettySize=auto;orthogonalLoop=1;fontSize=11;endArrow=block;endFill=0;endSize=8;strokeWidth=1;shadow=0;labelBackgroundColor=none;edgeStyle=orthogonalEdgeStyle;exitX=0.5;exitY=1;exitDx=0;exitDy=0;entryX=0.5;entryY=0;entryDx=0;entryDy=0;" edge="1" parent="WIyWlLk6GJQsqaUBKTNV-1" source="uMimtZwjXZrKzvqyP-bI-4" target="uMimtZwjXZrKzvqyP-bI-42">
          <mxGeometry relative="1" as="geometry">
            <mxPoint x="418" y="400" as="sourcePoint" />
            <mxPoint x="498" y="508" as="targetPoint" />
          </mxGeometry>
        </mxCell>
        <mxCell id="uMimtZwjXZrKzvqyP-bI-55" value="" style="rounded=0;html=1;jettySize=auto;orthogonalLoop=1;fontSize=11;endArrow=block;endFill=0;endSize=8;strokeWidth=1;shadow=0;labelBackgroundColor=none;edgeStyle=orthogonalEdgeStyle;exitX=0.5;exitY=1;exitDx=0;exitDy=0;entryX=0.5;entryY=0;entryDx=0;entryDy=0;" edge="1" parent="WIyWlLk6GJQsqaUBKTNV-1" source="uMimtZwjXZrKzvqyP-bI-42" target="uMimtZwjXZrKzvqyP-bI-43">
          <mxGeometry relative="1" as="geometry">
            <mxPoint x="418" y="399" as="sourcePoint" />
            <mxPoint x="301" y="507" as="targetPoint" />
          </mxGeometry>
        </mxCell>
        <mxCell id="uMimtZwjXZrKzvqyP-bI-57" value="" style="rounded=0;html=1;jettySize=auto;orthogonalLoop=1;fontSize=11;endArrow=block;endFill=0;endSize=8;strokeWidth=1;shadow=0;labelBackgroundColor=none;edgeStyle=orthogonalEdgeStyle;exitX=0.5;exitY=1;exitDx=0;exitDy=0;entryX=0.5;entryY=0;entryDx=0;entryDy=0;" edge="1" parent="WIyWlLk6GJQsqaUBKTNV-1" source="uMimtZwjXZrKzvqyP-bI-43" target="uMimtZwjXZrKzvqyP-bI-45">
          <mxGeometry relative="1" as="geometry">
            <mxPoint x="418" y="399" as="sourcePoint" />
            <mxPoint x="301" y="507" as="targetPoint" />
          </mxGeometry>
        </mxCell>
        <mxCell id="uMimtZwjXZrKzvqyP-bI-58" value="" style="rounded=0;html=1;jettySize=auto;orthogonalLoop=1;fontSize=11;endArrow=block;endFill=0;endSize=8;strokeWidth=1;shadow=0;labelBackgroundColor=none;edgeStyle=orthogonalEdgeStyle;exitX=0.5;exitY=1;exitDx=0;exitDy=0;entryX=0.5;entryY=0;entryDx=0;entryDy=0;" edge="1" parent="WIyWlLk6GJQsqaUBKTNV-1" source="uMimtZwjXZrKzvqyP-bI-45" target="uMimtZwjXZrKzvqyP-bI-46">
          <mxGeometry relative="1" as="geometry">
            <mxPoint x="418" y="399" as="sourcePoint" />
            <mxPoint x="301" y="507" as="targetPoint" />
          </mxGeometry>
        </mxCell>
        <mxCell id="uMimtZwjXZrKzvqyP-bI-59" value="3.2 Calculate Average Similarity Score" style="rounded=1;whiteSpace=wrap;html=1;fontSize=12;glass=0;strokeWidth=1;shadow=0;" vertex="1" parent="WIyWlLk6GJQsqaUBKTNV-1">
          <mxGeometry x="457" y="584" width="131" height="46" as="geometry" />
        </mxCell>
        <mxCell id="uMimtZwjXZrKzvqyP-bI-60" value="" style="rounded=0;html=1;jettySize=auto;orthogonalLoop=1;fontSize=11;endArrow=block;endFill=0;endSize=8;strokeWidth=1;shadow=0;labelBackgroundColor=none;edgeStyle=orthogonalEdgeStyle;exitX=0.5;exitY=1;exitDx=0;exitDy=0;entryX=0.5;entryY=0;entryDx=0;entryDy=0;" edge="1" parent="WIyWlLk6GJQsqaUBKTNV-1" source="uMimtZwjXZrKzvqyP-bI-5" target="uMimtZwjXZrKzvqyP-bI-59">
          <mxGeometry relative="1" as="geometry">
            <mxPoint x="463" y="404" as="sourcePoint" />
            <mxPoint x="538" y="493" as="targetPoint" />
          </mxGeometry>
        </mxCell>
        <mxCell id="uMimtZwjXZrKzvqyP-bI-61" value="" style="rounded=0;html=1;jettySize=auto;orthogonalLoop=1;fontSize=11;endArrow=block;endFill=0;endSize=8;strokeWidth=1;shadow=0;labelBackgroundColor=none;edgeStyle=orthogonalEdgeStyle;exitX=0.5;exitY=1;exitDx=0;exitDy=0;entryX=0.5;entryY=0;entryDx=0;entryDy=0;" edge="1" parent="WIyWlLk6GJQsqaUBKTNV-1" source="uMimtZwjXZrKzvqyP-bI-59" target="uMimtZwjXZrKzvqyP-bI-47">
          <mxGeometry relative="1" as="geometry">
            <mxPoint x="424" y="410" as="sourcePoint" />
            <mxPoint x="499" y="499" as="targetPoint" />
            <Array as="points">
              <mxPoint x="523" y="920" />
              <mxPoint x="424" y="920" />
            </Array>
          </mxGeometry>
        </mxCell>
        <mxCell id="uMimtZwjXZrKzvqyP-bI-64" value="4.2 Calculate Nearest Neighbor values considering 20 neighbors" style="rounded=1;whiteSpace=wrap;html=1;fontSize=12;glass=0;strokeWidth=1;shadow=0;" vertex="1" parent="WIyWlLk6GJQsqaUBKTNV-1">
          <mxGeometry x="655" y="571" width="130" height="66" as="geometry" />
        </mxCell>
        <mxCell id="uMimtZwjXZrKzvqyP-bI-65" value="" style="rounded=0;html=1;jettySize=auto;orthogonalLoop=1;fontSize=11;endArrow=block;endFill=0;endSize=8;strokeWidth=1;shadow=0;labelBackgroundColor=none;edgeStyle=orthogonalEdgeStyle;exitX=0.5;exitY=1;exitDx=0;exitDy=0;entryX=0.5;entryY=0;entryDx=0;entryDy=0;" edge="1" parent="WIyWlLk6GJQsqaUBKTNV-1" source="uMimtZwjXZrKzvqyP-bI-6" target="uMimtZwjXZrKzvqyP-bI-64">
          <mxGeometry relative="1" as="geometry">
            <mxPoint x="536" y="530" as="sourcePoint" />
            <mxPoint x="536" y="594" as="targetPoint" />
          </mxGeometry>
        </mxCell>
        <mxCell id="uMimtZwjXZrKzvqyP-bI-66" value="4.3 Return mean of all item ratings retrieved" style="rounded=1;whiteSpace=wrap;html=1;fontSize=12;glass=0;strokeWidth=1;shadow=0;" vertex="1" parent="WIyWlLk6GJQsqaUBKTNV-1">
          <mxGeometry x="655" y="701" width="130" height="66" as="geometry" />
        </mxCell>
        <mxCell id="uMimtZwjXZrKzvqyP-bI-69" value="" style="rounded=0;html=1;jettySize=auto;orthogonalLoop=1;fontSize=11;endArrow=block;endFill=0;endSize=8;strokeWidth=1;shadow=0;labelBackgroundColor=none;edgeStyle=orthogonalEdgeStyle;exitX=0.5;exitY=1;exitDx=0;exitDy=0;entryX=0.5;entryY=0;entryDx=0;entryDy=0;" edge="1" parent="WIyWlLk6GJQsqaUBKTNV-1" source="uMimtZwjXZrKzvqyP-bI-64" target="uMimtZwjXZrKzvqyP-bI-66">
          <mxGeometry relative="1" as="geometry">
            <mxPoint x="725" y="530" as="sourcePoint" />
            <mxPoint x="725" y="581" as="targetPoint" />
          </mxGeometry>
        </mxCell>
        <mxCell id="uMimtZwjXZrKzvqyP-bI-70" value="" style="rounded=0;html=1;jettySize=auto;orthogonalLoop=1;fontSize=11;endArrow=block;endFill=0;endSize=8;strokeWidth=1;shadow=0;labelBackgroundColor=none;edgeStyle=orthogonalEdgeStyle;exitX=0.5;exitY=1;exitDx=0;exitDy=0;entryX=0.5;entryY=0;entryDx=0;entryDy=0;" edge="1" parent="WIyWlLk6GJQsqaUBKTNV-1" source="uMimtZwjXZrKzvqyP-bI-66" target="uMimtZwjXZrKzvqyP-bI-47">
          <mxGeometry relative="1" as="geometry">
            <mxPoint x="315" y="910" as="sourcePoint" />
            <mxPoint x="434" y="950" as="targetPoint" />
            <Array as="points">
              <mxPoint x="720" y="920" />
              <mxPoint x="424" y="920" />
            </Array>
          </mxGeometry>
        </mxCell>
      </root>
    </mxGraphModel>
  </diagram>
</mxfile>
